<svg width="44" height="43" viewBox="0 0 44 43" fill="none" xmlns="http://www.w3.org/2000/svg">
<path d="M0 5C0 2.23858 2.23858 0 5 0H20V20H0V5Z" fill="#946D54"/>
<path d="M23 23H44V38C44 40.7614 41.7614 43 39 43H23V23Z" fill="white"/>
<path d="M23 0H39C41.7614 0 44 2.23858 44 5V20H23V0Z" fill="#95B4C3"/>
<path d="M0 23H20V43H5C2.23858 43 0 40.7614 0 38V23Z" fill="#ACC8B4"/>
<path d="M30.294 32.2302C29.4289 33.9929 29.8413 35.1955 30.8721 36.3981C31.9029 37.6008 36.6446 37.8413 38.0878 36.3981C39.5309 34.955 39.7714 34.4739 39.0196 32.2302" stroke="#9F9F9F" stroke-opacity="0.56" stroke-linecap="round"/>
<path d="M30.787 31.0276C30.8338 30.9492 31.7491 29.3439 32.2302 29.3439C32.7112 29.3439 33.4328 31.0276 33.4328 31.0276" stroke="#1E1E1E" stroke-linecap="round"/>
<path d="M35.5975 31.0276C35.6443 30.9492 36.5596 29.3439 37.0406 29.3439C37.5217 29.3439 38.2433 31.0276 38.2433 31.0276" stroke="#1E1E1E" stroke-linecap="round"/>
<path d="M34.6354 34.1544C34.6666 34.1544 34.7822 34.1544 34.9716 34.1544C35.0316 34.1544 34.8248 34.1855 34.7774 34.2561C34.7228 34.3372 34.7824 34.3453 34.8006 34.3603C34.8188 34.3754 34.7295 34.432 34.8168 34.3912M34.8168 34.3912C34.8464 34.3774 34.8404 34.4387 34.8168 34.3912ZM34.8168 34.3912C34.7932 34.3438 34.7622 34.2885 34.7774 34.2875" stroke="#FACCCC" stroke-opacity="0.56" stroke-linecap="round"/>
<path d="M36.7875 32.882C36.7679 32.882 36.7285 32.8918 36.6889 32.9213C36.671 32.9346 36.6884 32.9704 36.713 32.9855C36.7376 33.0006 36.7768 33.0006 36.7921 32.9859C36.8073 32.9713 36.7976 32.9419 36.7778 32.9219C36.7581 32.9019 36.7287 32.8921 36.6985 32.882" stroke="#ACC8B4" stroke-linecap="round"/>
<path d="M32.6647 33.0006C32.6451 32.9811 32.5958 32.971 32.5512 32.9808C32.5457 32.9905 32.5751 33.0101 32.5755 33.0153C32.576 33.0205 32.5466 33.0107 32.457 33.0303" stroke="#ACC8B4" stroke-linecap="round"/>
<path d="M6.4691 9.5288C5.60398 11.2915 6.01632 12.4941 7.04712 13.6968C8.07792 14.8994 12.8197 15.1399 14.2628 13.6968C15.706 12.2536 15.9465 11.7726 15.1947 9.5288" stroke="#FAF9F9" stroke-opacity="0.56" stroke-linecap="round"/>
<path d="M7.28766 7.68367C7.33442 7.60527 8.24975 6 8.7308 6C9.21185 6 9.93342 7.68367 9.93342 7.68367" stroke="#FAF9F9" stroke-opacity="0.56" stroke-linecap="round"/>
<path d="M11.6171 7.68367C11.6638 7.60527 12.5792 6 13.0602 6C13.5413 6 14.2628 7.68367 14.2628 7.68367" stroke="#FAF9F9" stroke-opacity="0.56" stroke-linecap="round"/>
<path d="M10.3301 11.3707C10.3613 11.3707 10.4769 11.3707 10.6663 11.3707C10.7263 11.3707 10.5195 11.4019 10.4721 11.4725C10.4175 11.5536 10.4771 11.5616 10.4953 11.5767C10.5135 11.5917 10.4242 11.6484 10.5115 11.6076M10.5115 11.6076C10.5411 11.5937 10.5351 11.655 10.5115 11.6076ZM10.5115 11.6076C10.4879 11.5601 10.4569 11.5048 10.4721 11.5039" stroke="#FACCCC" stroke-opacity="0.56" stroke-width="0.5" stroke-linecap="round"/>
<path d="M8.34651 10.6151H8.29929" stroke="#95B4C3" stroke-linecap="round"/>
<path d="M13.0222 10.3317H12.9749" stroke="#95B4C3" stroke-linecap="round"/>
</svg>
